# xmcd CD database file
#
# Track frame offsets:
#	150
#	20159
#	40392
#	54043
#	80213
#	99992
#	127016
#	152690
#	190309
#	216497
#	239961
#
# Disc length: 3615 seconds
#
# Revision: 0
# Processed by: cddbd v1.5.2PL0 Copyright (c) Steve Scherf et al.
# Submitted via: CDex 1.70beta2
#
DISCID=a10e1d0b
DTITLE=King Kooba and The Trout - Slow Gin Vol. 6 - Disc 1
DYEAR=1900
DGENRE=Jazz
TTITLE0=Herbie Mann - Consolarcao
TTITLE1=Cal Tjader - Soul Burst
TTITLE2=Wally Rodriguez - Seafood Wally
TTITLE3=Ray Barreto - Trompeta y Trombon
TTITLE4=Kenny Dorham - Minor's Holiday
TTITLE5=Lee Morgan - Gary's Notebook
TTITLE6=Horace Silver - Juicy Lucy
TTITLE7=Donald Byrd - Mustang
TTITLE8=Kenny Burrell - Better Get Your Thing Together
TTITLE9=Stanley Turrentine - You Want Me to Stop Loving You
TTITLE10=Lou Donaldson - Alligator Boogaloo
EXTD=
EXTT0=
EXTT1=
EXTT2=
EXTT3=
EXTT4=
EXTT5=
EXTT6=
EXTT7=
EXTT8=
EXTT9=
EXTT10=
PLAYORDER=
